<svg width="122" height="67" viewBox="0 0 122 67" fill="none" xmlns="http://www.w3.org/2000/svg">
<path d="M11.1388 23.8054C10.0992 23.8054 9.77246 23.7759 8.34669 23.5398C7.72291 23.4217 7.15855 23.3922 6.53477 23.3922C3.65354 23.4217 1.27726 24.9268 1.27726 27.76C1.27726 29.3831 2.01985 30.7997 3.89117 31.508C3.44561 31.626 1.69311 32.3343 1.69311 34.1345C1.69311 34.8723 1.93073 35.8757 3.68324 36.3479C3.11887 36.5545 0.712891 37.3808 0.712891 39.8598C0.712891 41.6305 2.07925 43.8439 6.41596 43.8439C12.0893 43.8439 13.5448 40.0074 13.5448 38.0891C13.5448 37.0562 13.1289 36.1708 12.4755 35.5806C11.9111 35.0789 11.1091 34.5772 8.82194 34.5477C8.55461 34.5477 7.21795 34.5772 6.92092 34.5772C3.95057 34.5772 3.77235 33.8689 3.77235 33.1606C3.77235 32.5114 4.1882 31.8621 4.96049 31.8621C5.0199 31.8621 6.56448 31.9802 6.86151 31.9802C9.92097 31.9802 12.2675 30.416 12.2675 27.5829C12.2675 26.4319 11.7923 25.5761 11.1388 25.0154C11.8814 25.0154 12.921 25.0154 13.6042 25.0744C13.5745 24.8383 13.5151 24.6317 13.5151 24.3661C13.5151 24.1595 13.5745 23.9234 13.6042 23.6873C12.2675 23.8054 12.0002 23.8054 11.1388 23.8054ZM6.95062 36.4955C8.64372 36.4955 11.317 36.9086 11.317 39.3876C11.317 41.1879 9.80216 42.752 7.01003 42.752C4.48523 42.752 2.76243 41.542 2.76243 39.5647C2.76243 36.4955 6.29715 36.4955 6.95062 36.4955ZM6.62388 31.0653C5.0793 31.0653 3.83176 30.0914 3.83176 27.8485C3.83176 26.8451 4.06938 24.3071 6.7724 24.3071C8.16847 24.3071 9.68334 25.1924 9.68334 27.5239C9.68334 28.9995 9.08927 31.0653 6.62388 31.0653Z" fill="#413C3F"/>
<path d="M106.814 59.072C105.269 59.072 104.913 57.8915 104.913 55.7371C104.913 53.2877 104.942 50.8382 105.061 48.3887C106.16 48.3887 107.289 48.4477 107.972 48.4772C107.943 48.3002 107.913 48.1231 107.913 47.828C107.913 47.5329 107.943 47.3853 107.972 47.1492C107.051 47.2377 106.071 47.2968 105.061 47.2968C105.121 45.526 105.121 45.3195 105.24 43.1061C104.735 43.4012 103.249 44.198 102.477 44.3456C102.537 45.7326 102.537 46.3819 102.537 47.3263C102.032 47.3263 101.586 47.2968 101.23 47.2673C100.873 47.2377 100.576 47.2082 100.368 47.1787C100.398 47.3853 100.428 47.5919 100.428 47.8575C100.428 48.1526 100.398 48.3297 100.368 48.5363C101.497 48.4477 101.675 48.4182 102.537 48.4182V52.6384C102.477 55.1469 102.477 55.6486 102.477 56.0618C102.477 57.744 102.626 58.2161 102.863 58.5703C103.309 59.3376 104.2 60.1639 105.744 60.1639C106.368 60.1639 107.408 60.0164 108.032 59.6622C107.972 59.3081 107.972 59.2195 108.032 58.9244C107.705 58.9539 107.051 59.072 106.814 59.072Z" fill="#413C3F"/>
<path d="M21.0007 23.4512C16.5749 23.4512 14.5254 26.5499 14.5254 30.2684C14.5254 34.4001 17.0205 36.9676 21.1196 36.9676C23.3176 36.9676 24.9513 36.3478 26.1395 35.2264C26.1692 34.7837 26.1692 34.3706 26.3177 33.6328L25.9909 33.5442C25.5751 34.1049 24.3572 35.7281 21.7136 35.7281C20.9413 35.7281 19.1888 35.6396 17.9413 33.6328C17.2284 32.3933 17.2284 30.8882 17.2284 30.1208H26.9117C26.9117 28.6453 27.0009 23.4512 21.0007 23.4512ZM17.2581 28.9699C17.4957 26.2843 18.6245 24.5136 20.971 24.5136C24.2087 24.5136 24.2087 28.0845 24.2087 28.9699H17.2581Z" fill="#413C3F"/>
<path d="M41.2876 33.8394C41.2876 32.9245 41.4065 28.4092 41.4065 28.1436C41.4065 26.609 41.1985 23.4807 36.7727 23.4807C34.2182 23.4807 32.733 24.8383 32.0202 26.1073C32.0499 25.7236 32.139 23.9529 32.1687 23.5692C31.7231 23.6578 31.3667 23.7168 30.8617 23.7168C30.3568 23.7168 30.0003 23.6283 29.5251 23.5692C29.5845 25.458 29.6736 27.4943 29.6736 29.265C29.6736 33.2786 29.5251 34.9903 29.4062 36.643C29.8221 36.5545 30.2082 36.4954 30.832 36.4954C31.4558 36.4954 31.8716 36.584 32.2578 36.643C32.1687 35.6396 32.0499 34.282 32.0499 32.1867C32.0499 30.9177 32.0499 27.9075 32.5251 26.9631C33.1786 25.7531 34.3073 25.1039 35.7331 25.1039C38.7331 25.1039 38.852 27.6419 38.852 30.3275C38.852 30.7996 38.852 33.7508 38.6143 36.6135C39.0302 36.4954 39.3569 36.4659 40.0401 36.4659C40.7233 36.4659 41.05 36.5249 41.4065 36.6135C41.3173 36.2003 41.2876 34.3411 41.2876 33.8394Z" fill="#413C3F"/>
<path d="M70.7831 36.9381C72.892 36.9381 74.0208 35.9347 74.8525 35.0493C75.1495 36.2593 76.0109 36.7905 76.902 36.7905C77.6446 36.7905 78.2387 36.4954 78.8327 36.2003L78.803 35.4625C78.6545 35.5215 78.4466 35.61 78.1199 35.61C77.1099 35.61 77.1099 34.8427 77.1099 32.4818C77.1099 31.7735 77.2287 28.4387 77.2287 27.6714C77.2287 26.0482 76.7535 25.2514 76.1297 24.6612C75.0604 23.6578 73.5752 23.4512 72.5059 23.4512C70.3078 23.4512 68.9712 24.4251 68.1395 25.0743L68.0207 26.8155H68.7633C69.0009 26.2548 69.5949 24.8382 71.8227 24.8382C73.5752 24.8382 74.8525 25.9302 74.8525 27.7599C74.8525 28.4977 74.6148 28.8518 73.8425 29.0584L71.496 29.5601C69.2979 30.0323 67.0107 30.5635 67.0107 33.3967C67.0701 34.8427 68.0207 36.9381 70.7831 36.9381ZM74.8228 29.9143V32.8654C74.8228 34.341 73.3376 35.4035 71.9712 35.4035C71.0207 35.4035 69.6841 34.9018 69.6841 33.1606C69.6841 31.7145 70.189 30.6225 74.8228 29.9143Z" fill="#413C3F"/>
<path d="M101.022 23.4218C96.982 23.4218 94.1602 26.0188 94.1602 30.2095C94.1602 35.6987 98.1404 36.9972 101.022 36.9972C105.121 36.9972 108.091 34.3116 108.091 30.0619C108.091 26.7861 106.16 23.4218 101.022 23.4218ZM101.051 35.9053C98.586 35.9053 96.9226 33.8394 96.9226 30.1209C96.9226 29.3241 96.9226 24.4842 101.17 24.4842C104.675 24.4842 105.329 28.0551 105.329 30.1209C105.329 33.6919 103.636 35.9053 101.051 35.9053Z" fill="#413C3F"/>
<path d="M111.121 36.4365C111.744 36.4365 112.16 36.525 112.546 36.584C112.457 35.5806 112.339 34.2231 112.339 32.1277C112.339 30.8587 112.339 27.8485 112.814 26.9042C113.467 25.6942 114.596 25.0449 116.022 25.0449C119.022 25.0449 119.141 27.5829 119.141 30.2685C119.141 30.7407 119.141 33.6919 118.903 36.5545C119.319 36.4365 119.646 36.407 120.329 36.407C121.012 36.407 121.339 36.466 121.695 36.5545C121.636 36.1414 121.606 34.2821 121.606 33.7804C121.606 32.8655 121.725 28.3502 121.725 28.0846C121.725 26.55 121.517 23.4218 117.091 23.4218C114.537 23.4218 113.051 24.7793 112.339 26.0483C112.368 25.6647 112.457 23.8939 112.487 23.5103C112.041 23.5988 111.685 23.6578 111.18 23.6578C110.675 23.6578 110.319 23.5693 109.843 23.5103C109.903 25.399 109.992 27.4354 109.992 29.2061C109.992 33.2197 109.843 34.9314 109.725 36.584C110.111 36.525 110.497 36.4365 111.121 36.4365Z" fill="#413C3F"/>
<path d="M43.1299 47.3263C42.3874 47.3263 41.5854 47.2968 40.8428 47.2673C40.8725 47.5034 40.9022 47.71 40.9022 47.8871C40.9022 48.0641 40.8725 48.2412 40.8428 48.4478C41.5854 48.4183 42.3577 48.3888 43.1002 48.3888C43.1596 50.1005 43.1894 51.6351 43.1894 52.8156C43.1894 54.7633 43.1002 58.0391 42.922 59.8984C43.3676 59.8394 43.7834 59.7508 44.3775 59.7508C44.9716 59.7508 45.3874 59.8689 45.8033 59.8984C45.625 58.0391 45.625 53.937 45.625 52.7565L45.5953 48.3888C46.5458 48.3888 47.4964 48.4183 48.4172 48.4478C48.3875 48.3002 48.3578 48.1232 48.3578 47.9461C48.3578 47.7985 48.3875 47.5624 48.4172 47.2673C47.4369 47.2968 46.5161 47.3263 45.5359 47.3263C45.4171 46.9132 45.1795 45.5261 45.1795 44.5817C45.1795 43.962 45.1795 42.1913 47.1993 42.1913C47.8231 42.1913 48.2686 42.3388 48.7439 42.5159L48.9221 42.3979L49.0706 40.1845C48.8627 40.1255 48.6845 40.0959 48.3578 40.0959C45.8033 40.0959 43.2488 43.1947 43.1299 47.3263Z" fill="#413C3F"/>
<path d="M50.5252 36.9676C52.7233 36.9676 54.357 36.3479 55.5451 35.2264C55.5748 34.7837 55.5748 34.3706 55.7234 33.6328L55.3966 33.5443C54.9808 34.105 53.7629 35.7281 51.1193 35.7281C50.347 35.7281 48.5945 35.6396 47.347 33.6328C46.6044 32.3933 46.6044 30.8882 46.6044 30.1209H56.2877C56.3174 28.6748 56.4065 23.4807 50.3767 23.4807C45.9509 23.4807 43.9014 26.5795 43.9014 30.2979C43.9311 34.4001 46.4262 36.9676 50.5252 36.9676ZM50.3767 24.5431C53.6144 24.5431 53.6144 28.1141 53.6144 28.9994H46.6638C46.9014 26.3138 48.0302 24.5431 50.3767 24.5431Z" fill="#413C3F"/>
<path d="M120.774 47.0017C120.299 47.0017 119.883 46.9131 119.586 46.8541C118.279 51.2218 116.051 56.652 115.754 56.652C115.605 56.652 115.368 56.2094 115.19 55.7372C113.823 52.4318 112.071 47.5624 111.833 46.8541C111.298 47.0017 110.972 47.0017 110.378 47.0017C109.546 47.0017 109.13 46.9426 108.685 46.8541C109.487 48.5068 109.665 48.8904 110.437 50.7792C111.239 52.6679 112.516 55.7076 113.318 57.5964L114.388 60.2525C113.318 62.4363 112.16 64.5907 110.972 66.7746C111.447 66.6565 111.833 66.627 112.19 66.627C112.605 66.627 112.932 66.7156 113.14 66.7746C114.328 62.7905 116.259 58.5998 118.101 54.6452C118.427 53.996 118.724 53.3467 119.021 52.727C121.16 48.0936 121.398 47.5919 121.873 46.8246C121.635 46.9426 121.279 47.0017 120.774 47.0017Z" fill="#413C3F"/>
<path d="M97.101 42.3683C96.3287 42.3683 95.6455 43.0175 95.6455 43.8439C95.6455 44.6407 96.3287 45.29 97.101 45.29C97.903 45.29 98.5862 44.6407 98.5862 43.8439C98.5564 43.0175 97.903 42.3683 97.101 42.3683Z" fill="#413C3F"/>
<path d="M85.5462 35.7577C84.0017 35.7577 83.6452 34.5772 83.6452 32.4228C83.6452 29.9733 83.6749 27.5239 83.7937 25.0744C84.8928 25.0744 86.0215 25.1334 86.7047 25.1629C86.675 24.9858 86.6453 24.8088 86.6453 24.5136C86.6453 24.2185 86.675 24.071 86.7047 23.8349C85.7839 23.9234 84.8037 23.9824 83.7937 23.9824C83.8531 22.2117 83.8531 22.0051 83.972 19.7917C83.467 20.0869 81.9818 20.8837 81.2095 21.0312C81.2689 22.4183 81.2689 23.0676 81.2689 24.0119C80.764 24.0119 80.3184 23.9824 79.962 23.9529C79.6055 23.9234 79.3085 23.8939 79.1006 23.8644C79.1303 24.071 79.16 24.2775 79.16 24.5432C79.16 24.8383 79.1303 25.0153 79.1006 25.2219C80.2293 25.1334 80.4075 25.1039 81.2689 25.1039V29.3241C81.2095 31.8326 81.2095 32.3343 81.2095 32.7474C81.2095 34.4296 81.358 34.9018 81.5957 35.256C82.0412 36.0233 82.9323 36.8496 84.4769 36.8496C85.1007 36.8496 86.1403 36.702 86.7641 36.3479C86.7047 35.9937 86.7047 35.9052 86.7641 35.6101C86.4373 35.6396 85.7839 35.7577 85.5462 35.7577Z" fill="#413C3F"/>
<path d="M98.3778 46.9426C97.962 47.0607 97.6055 47.0902 96.9818 47.0902C96.358 47.0902 96.0312 47.0312 95.6748 46.9426C95.7936 48.3297 95.8827 50.0414 95.8827 53.1106C95.8827 55.2059 95.7936 57.8915 95.7045 59.9278C96.1204 59.8098 96.358 59.7803 97.1006 59.7803C97.8135 59.7803 98.0808 59.8393 98.4075 59.9278C98.259 55.7076 98.2293 55.2355 98.2293 53.996C98.2293 49.6282 98.2887 48.4182 98.3778 46.9426Z" fill="#413C3F"/>
<path d="M84.952 46.9426C84.5362 47.0607 84.1797 47.0902 83.556 47.0902C82.9322 47.0902 82.6055 47.0312 82.249 46.9426C82.3678 48.3297 82.4569 50.0414 82.4569 53.1106C82.4569 55.2059 82.3678 57.8915 82.2787 59.9278C82.6946 59.8098 82.9322 59.7803 83.6748 59.7803C84.3877 59.7803 84.655 59.8393 84.9817 59.9278C84.8332 55.7076 84.8035 55.2355 84.8035 53.996C84.8035 49.6282 84.8926 48.4182 84.952 46.9426Z" fill="#413C3F"/>
<path d="M83.6752 42.3683C82.9029 42.3683 82.2197 43.0175 82.2197 43.8439C82.2197 44.6407 82.9029 45.29 83.6752 45.29C84.4772 45.29 85.1604 44.6407 85.1604 43.8439C85.1604 43.0175 84.4772 42.3683 83.6752 42.3683Z" fill="#413C3F"/>
<path d="M78.9818 59.072C77.4372 59.072 77.0808 57.8915 77.0808 55.7371C77.0808 53.2877 77.1105 50.8382 77.2293 48.3887C78.3283 48.3887 79.457 48.4477 80.1402 48.4772C80.1105 48.3002 80.0808 48.1231 80.0808 47.828C80.0808 47.5329 80.1105 47.3853 80.1402 47.1492C79.2194 47.2377 78.2392 47.2968 77.2293 47.2968C77.2887 45.526 77.2887 45.3195 77.4075 43.1061C76.9025 43.4012 75.4174 44.198 74.6451 44.3456C74.7045 45.7326 74.7045 46.3819 74.7045 47.3263C74.1995 47.3263 73.754 47.2968 73.3975 47.2673C73.0411 47.2377 72.7441 47.2082 72.5361 47.1787C72.5658 47.3853 72.5955 47.5919 72.5955 47.8575C72.5955 48.1526 72.5658 48.3297 72.5361 48.5363C73.6649 48.4477 73.8431 48.4182 74.7045 48.4182V52.6384C74.6451 55.1469 74.6451 55.6486 74.6451 56.0618C74.6451 57.744 74.7936 58.2161 75.0312 58.5703C75.4768 59.3376 76.3679 60.1639 77.9125 60.1639C78.5362 60.1639 79.5759 60.0164 80.1996 59.6622C80.1402 59.3081 80.1402 59.2195 80.1996 58.9244C79.8729 58.9539 79.2194 59.072 78.9818 59.072Z" fill="#413C3F"/>
<path d="M55.7537 46.7656C51.3279 46.7656 49.2783 49.8644 49.2783 53.5829C49.2783 57.7145 51.7734 60.282 55.8725 60.282C58.0705 60.282 59.7042 59.6623 60.8924 58.5408C60.9221 58.0982 60.9221 57.685 61.0706 56.9472L60.7439 56.8587C60.328 57.4194 59.1102 59.0426 56.4666 59.0426C55.6943 59.0426 53.9418 58.954 52.6942 56.9472C51.9813 55.7077 51.9813 54.2026 51.9813 53.4353H61.6647C61.6944 51.9597 61.7538 46.7656 55.7537 46.7656ZM52.011 52.2843C52.2487 49.5988 53.3774 47.828 55.724 47.828C58.9616 47.828 58.9617 51.399 58.9617 52.2843H52.011Z" fill="#413C3F"/>
<path d="M66.1493 26.0778L66.3276 25.9302C66.2682 25.4875 66.2682 25.34 66.2682 25.1924C66.2682 24.3956 66.4167 23.8644 66.5058 23.4512C63.3572 23.1856 62.08 25.4875 61.6344 26.55C61.6344 26.0778 61.6344 24.9858 61.8423 23.5102C61.3968 23.6283 61.07 23.6578 60.476 23.6578C59.8819 23.6578 59.4958 23.5988 59.1096 23.5102C59.2284 25.2514 59.3175 26.727 59.3175 29.7372C59.3175 33.9279 59.1987 34.8133 59.0205 36.5545C59.4364 36.4364 59.7334 36.4069 60.3572 36.4069C61.07 36.4069 61.3968 36.4659 61.8126 36.5545C61.7829 35.7281 61.7829 35.5511 61.6641 33.6623C61.6344 33.1016 61.6344 32.1867 61.6344 31.9211C61.6344 28.6158 61.6938 28.0256 62.08 27.1992C62.3473 26.6975 63.179 25.6646 64.7236 25.6646C65.4959 25.7236 65.8226 25.9007 66.1493 26.0778Z" fill="#413C3F"/>
<path d="M66.6842 49.8643C66.6842 49.3921 66.6842 48.3002 66.8921 46.8246C66.4466 46.9426 66.1199 46.9721 65.5258 46.9721C64.9317 46.9721 64.5456 46.9131 64.1594 46.8246C64.2782 48.5658 64.3673 50.0414 64.3673 53.0516C64.3673 57.2422 64.2485 58.1276 64.0703 59.8688C64.4862 59.7508 64.7832 59.7212 65.407 59.7212C66.1199 59.7212 66.4466 59.7803 66.8624 59.8688C66.8327 59.0425 66.8327 58.8654 66.7139 56.9766C66.6842 56.4159 66.6842 55.501 66.6842 55.2354C66.6842 51.9301 66.7436 51.3399 67.1298 50.5135C67.3971 50.0118 68.2288 48.9789 69.7734 48.9789C70.4863 48.9789 70.813 49.1265 71.1694 49.3331L71.3477 49.1855C71.2883 48.7428 71.2883 48.5953 71.2883 48.4477C71.2883 47.6509 71.4368 47.1197 71.5259 46.7065C68.407 46.4999 67.1595 48.8019 66.6842 49.8643Z" fill="#413C3F"/>
<path d="M94.1604 22.5068C97.0714 22.7724 100.071 21.7986 102.299 19.5852C104.616 17.2832 105.567 14.1845 105.21 11.1743C102.21 10.8202 99.0615 11.7645 96.7446 14.0665C94.5466 16.2503 93.5664 19.1425 93.7743 21.9756L91.3683 23.6873C91.3683 18.7293 91.398 14.7747 91.4277 13.0335C92.9129 11.4694 93.8337 9.37408 93.8337 7.04264C93.8337 4.23902 92.5267 1.76002 90.4475 0.166382C88.398 1.76002 87.0613 4.23902 87.0613 7.04264C87.0613 9.37408 87.9821 11.4989 89.497 13.0631C89.497 14.3321 89.4673 16.8111 89.4376 19.9983L87.2098 17.4898C87.4177 14.8928 86.5266 12.2367 84.5662 10.2299C82.4573 8.07556 79.576 7.16069 76.8136 7.45581C76.4572 10.2004 77.3186 13.0926 79.3978 15.2469C81.4176 17.3128 84.1801 18.2276 86.8534 18.021L89.4079 21.4739C89.2297 35.0199 88.8138 58.5703 88.7247 60.0459C89.1405 59.9279 89.3782 59.8983 90.1208 59.8983C90.8336 59.8983 91.101 59.9574 91.4277 60.0459C91.3089 57.2718 91.3089 38.0891 91.3386 24.8383L94.1604 22.5068ZM98.4377 15.9847C99.0318 15.5125 99.8932 15.5716 100.398 16.1618C100.873 16.752 100.814 17.6079 100.22 18.1096C99.6259 18.5818 98.7645 18.5227 98.2595 17.9325C97.7843 17.3423 97.8437 16.4569 98.4377 15.9847ZM82.9028 13.6828C82.3087 14.155 81.4473 14.096 80.9424 13.5057C80.4671 12.9155 80.5265 12.0597 81.1206 11.558C81.7147 11.0858 82.5761 11.1448 83.081 11.735C83.586 12.3253 83.4969 13.1811 82.9028 13.6828ZM91.3683 7.928C90.7742 8.40019 89.9128 8.34116 89.4079 7.75093C88.9326 7.16069 88.992 6.30485 89.5861 5.80314C90.1802 5.33096 91.0416 5.38998 91.5465 5.98022C92.0515 6.57045 91.9624 7.45581 91.3683 7.928Z" fill="#413C3F"/>
<path d="M91.4276 13.0336C91.3979 14.7748 91.3682 18.7294 91.3682 23.6873L91.3385 24.8383C91.3088 38.0891 91.3088 57.2718 91.4276 60.0459C91.1009 59.9574 90.8336 59.8984 90.1207 59.8984C89.3781 59.8984 89.1405 59.9279 88.7246 60.0459C88.8137 58.5703 89.2296 35.0199 89.4078 21.474L89.4375 19.9984C89.4672 16.8111 89.4969 14.3321 89.4969 13.0631L91.4276 13.0336Z" fill="#413C3F"/>
</svg>
